<svg width="19" height="18" viewBox="0 0 19 18" fill="none" xmlns="http://www.w3.org/2000/svg">
    <path
        d="M7.12514 11.3333H1.79167C0.871192 11.3333 0.125 10.5872 0.125 9.66667V7.91308C0.125 7.69533 0.16765 7.47975 0.250533 7.2785L2.82917 1.01604C2.95775 0.703792 3.26206 0.5 3.59974 0.5H17.625C18.0852 0.5 18.4583 0.8731 18.4583 1.33333V9.66667C18.4583 10.1269 18.0852 10.5 17.625 10.5H14.7235C14.4527 10.5 14.1988 10.6316 14.0427 10.8528L9.49817 17.2908C9.37942 17.459 9.15558 17.5153 8.97142 17.4232L7.45969 16.6673C6.58332 16.2292 6.13072 15.2395 6.37245 14.29L7.12514 11.3333ZM13.4583 9.17708V2.16667H4.15782L1.79167 7.91308V9.66667H7.12514C8.21242 9.66667 9.0085 10.6908 8.74033 11.7445L7.98758 14.7012C7.93925 14.8911 8.02975 15.089 8.20508 15.1767L8.756 15.4521L12.6811 9.89167C12.8893 9.59658 13.1555 9.35475 13.4583 9.17708ZM15.125 8.83333H16.7917V2.16667H15.125V8.83333Z"
        fill="#002544" />
</svg>