<svg width="38" height="38" viewBox="0 0 38 38" fill="none" xmlns="http://www.w3.org/2000/svg">
    <path
        d="M25.9169 1.43444L25.9169 1.43444C24.116 1.34997 23.5319 1.33334 19 1.33334C14.4655 1.33334 13.8839 1.35504 12.086 1.43431L12.0832 1.43444C10.2165 1.522 8.90246 1.81769 7.72635 2.27422C6.48248 2.74229 5.35535 3.47538 4.42315 4.4226C3.47486 5.35442 2.74143 6.48203 2.27409 7.7267C1.81764 8.90272 1.52199 10.2166 1.43444 12.0832C1.34997 13.884 1.33334 14.4681 1.33334 19C1.33334 23.5345 1.35504 24.1161 1.43431 25.9141L1.43444 25.9169C1.52198 27.7815 1.81756 29.099 2.27437 30.2741C2.74279 31.5176 3.4758 32.6446 4.42267 33.5769C5.35492 34.5249 6.48256 35.2583 7.72711 35.7261C8.90192 36.1803 10.217 36.478 12.0831 36.5656C13.884 36.6501 14.4681 36.6667 19 36.6667C23.5345 36.6667 24.1161 36.645 25.9141 36.5657L25.9169 36.5656C27.7829 36.478 29.1 36.1804 30.2738 35.7258C31.5171 35.2569 32.6439 34.524 33.5767 33.5776C34.5251 32.6456 35.2586 31.5177 35.7261 30.2728C36.1803 29.0981 36.478 27.783 36.5656 25.9169C36.6501 24.116 36.6667 23.5319 36.6667 19C36.6667 14.4655 36.645 13.8839 36.5657 12.086L36.5656 12.0831C36.478 10.2172 36.1804 8.90013 35.7258 7.72641C35.2566 6.48122 34.5224 5.3529 33.5738 4.41964C32.5454 3.39373 31.5001 2.74643 30.2773 2.27563C29.1002 1.81827 27.7837 1.52209 25.9169 1.43444ZM13.8146 13.8146C15.1898 12.4393 17.0551 11.6667 19 11.6667C20.9449 11.6667 22.8102 12.4393 24.1855 13.8146C25.5607 15.1898 26.3333 17.0551 26.3333 19C26.3333 20.9449 25.5607 22.8102 24.1855 24.1855C22.8102 25.5607 20.9449 26.3333 19 26.3333C17.0551 26.3333 15.1898 25.5607 13.8146 24.1855C12.4393 22.8102 11.6667 20.9449 11.6667 19C11.6667 17.0551 12.4393 15.1898 13.8146 13.8146ZM28.516 9.48398C28.7192 9.68714 28.8333 9.96269 28.8333 10.25C28.8333 10.5373 28.7192 10.8129 28.516 11.016C28.3129 11.2192 28.0373 11.3333 27.75 11.3333C27.4627 11.3333 27.1871 11.2192 26.984 11.016C26.7808 10.8129 26.6667 10.5373 26.6667 10.25C26.6667 9.96269 26.7808 9.68714 26.984 9.48398C27.1871 9.28082 27.4627 9.16668 27.75 9.16668C28.0373 9.16668 28.3129 9.28082 28.516 9.48398ZM23.2427 14.7574C22.1174 13.6322 20.5913 13 19 13C17.4087 13 15.8826 13.6322 14.7574 14.7574C13.6322 15.8826 13 17.4087 13 19C13 20.5913 13.6322 22.1174 14.7574 23.2427C15.8826 24.3679 17.4087 25 19 25C20.5913 25 22.1174 24.3679 23.2427 23.2427C24.3679 22.1174 25 20.5913 25 19C25 17.4087 24.3679 15.8826 23.2427 14.7574Z"
        fill="url(#paint0_radial_140_139)" />
    <path
        d="M25.9169 1.43444L25.9169 1.43444C24.116 1.34997 23.5319 1.33334 19 1.33334C14.4655 1.33334 13.8839 1.35504 12.086 1.43431L12.0832 1.43444C10.2165 1.522 8.90246 1.81769 7.72635 2.27422C6.48248 2.74229 5.35535 3.47538 4.42315 4.4226C3.47486 5.35442 2.74143 6.48203 2.27409 7.7267C1.81764 8.90272 1.52199 10.2166 1.43444 12.0832C1.34997 13.884 1.33334 14.4681 1.33334 19C1.33334 23.5345 1.35504 24.1161 1.43431 25.9141L1.43444 25.9169C1.52198 27.7815 1.81756 29.099 2.27437 30.2741C2.74279 31.5176 3.4758 32.6446 4.42267 33.5769C5.35492 34.5249 6.48256 35.2583 7.72711 35.7261C8.90192 36.1803 10.217 36.478 12.0831 36.5656C13.884 36.6501 14.4681 36.6667 19 36.6667C23.5345 36.6667 24.1161 36.645 25.9141 36.5657L25.9169 36.5656C27.7829 36.478 29.1 36.1804 30.2738 35.7258C31.5171 35.2569 32.6439 34.524 33.5767 33.5776C34.5251 32.6456 35.2586 31.5177 35.7261 30.2728C36.1803 29.0981 36.478 27.783 36.5656 25.9169C36.6501 24.116 36.6667 23.5319 36.6667 19C36.6667 14.4655 36.645 13.8839 36.5657 12.086L36.5656 12.0831C36.478 10.2172 36.1804 8.90013 35.7258 7.72641C35.2566 6.48122 34.5224 5.3529 33.5738 4.41964C32.5454 3.39373 31.5001 2.74643 30.2773 2.27563C29.1002 1.81827 27.7837 1.52209 25.9169 1.43444ZM13.8146 13.8146C15.1898 12.4393 17.0551 11.6667 19 11.6667C20.9449 11.6667 22.8102 12.4393 24.1855 13.8146C25.5607 15.1898 26.3333 17.0551 26.3333 19C26.3333 20.9449 25.5607 22.8102 24.1855 24.1855C22.8102 25.5607 20.9449 26.3333 19 26.3333C17.0551 26.3333 15.1898 25.5607 13.8146 24.1855C12.4393 22.8102 11.6667 20.9449 11.6667 19C11.6667 17.0551 12.4393 15.1898 13.8146 13.8146ZM28.516 9.48398C28.7192 9.68714 28.8333 9.96269 28.8333 10.25C28.8333 10.5373 28.7192 10.8129 28.516 11.016C28.3129 11.2192 28.0373 11.3333 27.75 11.3333C27.4627 11.3333 27.1871 11.2192 26.984 11.016C26.7808 10.8129 26.6667 10.5373 26.6667 10.25C26.6667 9.96269 26.7808 9.68714 26.984 9.48398C27.1871 9.28082 27.4627 9.16668 27.75 9.16668C28.0373 9.16668 28.3129 9.28082 28.516 9.48398ZM23.2427 14.7574C22.1174 13.6322 20.5913 13 19 13C17.4087 13 15.8826 13.6322 14.7574 14.7574C13.6322 15.8826 13 17.4087 13 19C13 20.5913 13.6322 22.1174 14.7574 23.2427C15.8826 24.3679 17.4087 25 19 25C20.5913 25 22.1174 24.3679 23.2427 23.2427C24.3679 22.1174 25 20.5913 25 19C25 17.4087 24.3679 15.8826 23.2427 14.7574Z"
        fill="url(#paint1_radial_140_139)" />
    <path
        d="M25.9169 1.43444L25.9169 1.43444C24.116 1.34997 23.5319 1.33334 19 1.33334C14.4655 1.33334 13.8839 1.35504 12.086 1.43431L12.0832 1.43444C10.2165 1.522 8.90246 1.81769 7.72635 2.27422C6.48248 2.74229 5.35535 3.47538 4.42315 4.4226C3.47486 5.35442 2.74143 6.48203 2.27409 7.7267C1.81764 8.90272 1.52199 10.2166 1.43444 12.0832C1.34997 13.884 1.33334 14.4681 1.33334 19C1.33334 23.5345 1.35504 24.1161 1.43431 25.9141L1.43444 25.9169C1.52198 27.7815 1.81756 29.099 2.27437 30.2741C2.74279 31.5176 3.4758 32.6446 4.42267 33.5769C5.35492 34.5249 6.48256 35.2583 7.72711 35.7261C8.90192 36.1803 10.217 36.478 12.0831 36.5656C13.884 36.6501 14.4681 36.6667 19 36.6667C23.5345 36.6667 24.1161 36.645 25.9141 36.5657L25.9169 36.5656C27.7829 36.478 29.1 36.1804 30.2738 35.7258C31.5171 35.2569 32.6439 34.524 33.5767 33.5776C34.5251 32.6456 35.2586 31.5177 35.7261 30.2728C36.1803 29.0981 36.478 27.783 36.5656 25.9169C36.6501 24.116 36.6667 23.5319 36.6667 19C36.6667 14.4655 36.645 13.8839 36.5657 12.086L36.5656 12.0831C36.478 10.2172 36.1804 8.90013 35.7258 7.72641C35.2566 6.48122 34.5224 5.3529 33.5738 4.41964C32.5454 3.39373 31.5001 2.74643 30.2773 2.27563C29.1002 1.81827 27.7837 1.52209 25.9169 1.43444ZM13.8146 13.8146C15.1898 12.4393 17.0551 11.6667 19 11.6667C20.9449 11.6667 22.8102 12.4393 24.1855 13.8146C25.5607 15.1898 26.3333 17.0551 26.3333 19C26.3333 20.9449 25.5607 22.8102 24.1855 24.1855C22.8102 25.5607 20.9449 26.3333 19 26.3333C17.0551 26.3333 15.1898 25.5607 13.8146 24.1855C12.4393 22.8102 11.6667 20.9449 11.6667 19C11.6667 17.0551 12.4393 15.1898 13.8146 13.8146ZM28.516 9.48398C28.7192 9.68714 28.8333 9.96269 28.8333 10.25C28.8333 10.5373 28.7192 10.8129 28.516 11.016C28.3129 11.2192 28.0373 11.3333 27.75 11.3333C27.4627 11.3333 27.1871 11.2192 26.984 11.016C26.7808 10.8129 26.6667 10.5373 26.6667 10.25C26.6667 9.96269 26.7808 9.68714 26.984 9.48398C27.1871 9.28082 27.4627 9.16668 27.75 9.16668C28.0373 9.16668 28.3129 9.28082 28.516 9.48398ZM23.2427 14.7574C22.1174 13.6322 20.5913 13 19 13C17.4087 13 15.8826 13.6322 14.7574 14.7574C13.6322 15.8826 13 17.4087 13 19C13 20.5913 13.6322 22.1174 14.7574 23.2427C15.8826 24.3679 17.4087 25 19 25C20.5913 25 22.1174 24.3679 23.2427 23.2427C24.3679 22.1174 25 20.5913 25 19C25 17.4087 24.3679 15.8826 23.2427 14.7574Z"
        stroke="white" stroke-width="2" />
    <defs>
        <radialGradient id="paint0_radial_140_139" cx="0" cy="0" r="1"
            gradientUnits="userSpaceOnUse"
            gradientTransform="translate(11.1876 38.2341) rotate(-90) scale(33.0358 30.7259)">
            <stop stop-color="#FFDD55" />
            <stop offset="0.1" stop-color="#FFDD55" />
            <stop offset="0.5" stop-color="#FF543E" />
            <stop offset="1" stop-color="#C837AB" />
        </radialGradient>
        <radialGradient id="paint1_radial_140_139" cx="0" cy="0" r="1"
            gradientUnits="userSpaceOnUse"
            gradientTransform="translate(-3.25017 4.73462) rotate(78.6806) scale(14.7671 60.8708)">
            <stop stop-color="#3771C8" />
            <stop offset="0.128" stop-color="#3771C8" />
            <stop offset="1" stop-color="#6600FF" stop-opacity="0" />
        </radialGradient>
    </defs>
</svg>