<svg width="19" height="18" viewBox="0 0 19 18" fill="none" xmlns="http://www.w3.org/2000/svg">
    <path
        d="M11.8748 6.66695H17.2083C18.1288 6.66695 18.875 7.41314 18.875 8.33359V10.0873C18.875 10.3049 18.8323 10.5205 18.7495 10.7218L16.1708 16.9843C16.0423 17.2965 15.7379 17.5003 15.4003 17.5003H1.37501C0.914772 17.5003 0.541672 17.1272 0.541672 16.6669V8.33359C0.541672 7.87338 0.914772 7.50029 1.37501 7.50029H4.27654C4.54731 7.50029 4.8012 7.36873 4.95735 7.14752L9.50184 0.709473C9.62059 0.541249 9.84442 0.484992 10.0286 0.577079L11.5403 1.33294C12.4167 1.77113 12.8693 2.76078 12.6276 3.7103L11.8748 6.66695ZM5.54167 8.82318V15.8336H14.8422L17.2083 10.0873V8.33359H11.8748C10.7876 8.33359 9.9915 7.30941 10.2597 6.25577L11.0124 3.29913C11.0608 3.10922 10.9703 2.91129 10.7949 2.82365L10.244 2.54818L6.31896 8.10866C6.11071 8.40368 5.84451 8.64551 5.54167 8.82318ZM3.875 9.16693H2.20834V15.8336H3.875V9.16693Z"
        fill="#002544" />
</svg>