<svg width="20" height="20" viewBox="0 0 20 20" fill="none" xmlns="http://www.w3.org/2000/svg">
    <path
        d="M13.2238 13.5078L11.0111 18.1579C10.8687 18.4572 10.5107 18.5843 10.2115 18.4419C10.1448 18.4102 10.0845 18.3664 10.0337 18.3127L6.49229 14.574C6.39749 14.4739 6.27113 14.4095 6.13445 14.3917L1.02816 13.7242C0.699578 13.6812 0.468038 13.3801 0.510988 13.0515C0.520558 12.9782 0.543588 12.9074 0.578898 12.8425L3.04031 8.3191C3.1062 8.198 3.12839 8.0579 3.10314 7.92241L2.16 2.85979C2.09931 2.53402 2.3142 2.22074 2.63997 2.16005C2.7126 2.14652 2.78711 2.14652 2.85974 2.16005L7.92237 3.10319C8.0579 3.12843 8.198 3.10625 8.319 3.04036L12.8424 0.578951C13.1335 0.420561 13.4979 0.528121 13.6562 0.819191C13.6916 0.884091 13.7146 0.954951 13.7241 1.02821L14.3916 6.13449C14.4095 6.27118 14.4739 6.39754 14.5739 6.49233L18.3127 10.0337C18.5533 10.2616 18.5636 10.6414 18.3357 10.8819C18.2849 10.9356 18.2246 10.9794 18.1579 11.0111L13.5078 13.2238C13.3833 13.2831 13.283 13.3833 13.2238 13.5078ZM14.0206 15.4349L15.4348 14.0207L19.6775 18.2633L18.2633 19.6775L14.0206 15.4349Z"
        fill="white" />
</svg>