<svg width="17" height="18" viewBox="0 0 17 18" fill="none" xmlns="http://www.w3.org/2000/svg">
    <path
        d="M8.45835 2.33332C10.7488 2.33332 12.7708 3.48854 13.9713 5.24999H11.7917V6.91666H16.7917V1.91666H15.125V3.99946C13.6052 1.97637 11.1853 0.666656 8.45835 0.666656C3.85597 0.666656 0.125015 4.39761 0.125015 8.99999H1.79168C1.79168 5.31809 4.77645 2.33332 8.45835 2.33332ZM15.125 8.99999C15.125 12.6819 12.1403 15.6667 8.45835 15.6667C6.16788 15.6667 4.14592 14.5114 2.94537 12.75H5.12502V11.0833H0.125015V16.0833H1.79168V14.0005C3.31152 16.0236 5.73138 17.3333 8.45835 17.3333C13.0607 17.3333 16.7917 13.6023 16.7917 8.99999H15.125Z"
        fill="#002544" />
</svg>